<svg width="36" height="37" viewBox="0 0 36 37" fill="none" xmlns="http://www.w3.org/2000/svg">
<path d="M17.925 27.5C18.45 27.5 18.894 27.3185 19.257 26.9555C19.62 26.5925 19.801 26.149 19.8 25.625C19.8 25.1 19.619 24.656 19.257 24.293C18.895 23.93 18.451 23.749 17.925 23.75C17.4 23.75 16.9565 23.9315 16.5945 24.2945C16.2325 24.6575 16.051 25.101 16.05 25.625C16.05 26.15 16.2315 26.594 16.5945 26.957C16.9575 27.32 17.401 27.501 17.925 27.5ZM16.575 21.725H19.35C19.35 20.9 19.444 20.25 19.632 19.775C19.82 19.3 20.351 18.65 21.225 17.825C21.875 17.175 22.3875 16.556 22.7625 15.968C23.1375 15.38 23.325 14.674 23.325 13.85C23.325 12.45 22.8125 11.375 21.7875 10.625C20.7625 9.875 19.55 9.5 18.15 9.5C16.725 9.5 15.569 9.875 14.682 10.625C13.795 11.375 13.176 12.275 12.825 13.325L15.3 14.3C15.425 13.85 15.7065 13.3625 16.1445 12.8375C16.5825 12.3125 17.251 12.05 18.15 12.05C18.95 12.05 19.55 12.269 19.95 12.707C20.35 13.145 20.55 13.626 20.55 14.15C20.55 14.65 20.4 15.119 20.1 15.557C19.8 15.995 19.425 16.401 18.975 16.775C17.875 17.75 17.2 18.4875 16.95 18.9875C16.7 19.4875 16.575 20.4 16.575 21.725ZM18 33.5C15.925 33.5 13.975 33.106 12.15 32.318C10.325 31.53 8.7375 30.4615 7.3875 29.1125C6.0375 27.7625 4.969 26.175 4.182 24.35C3.395 22.525 3.001 20.575 3 18.5C3 16.425 3.394 14.475 4.182 12.65C4.97 10.825 6.0385 9.2375 7.3875 7.8875C8.7375 6.5375 10.325 5.469 12.15 4.682C13.975 3.895 15.925 3.501 18 3.5C20.075 3.5 22.025 3.894 23.85 4.682C25.675 5.47 27.2625 6.5385 28.6125 7.8875C29.9625 9.2375 31.0315 10.825 31.8195 12.65C32.6075 14.475 33.001 16.425 33 18.5C33 20.575 32.606 22.525 31.818 24.35C31.03 26.175 29.9615 27.7625 28.6125 29.1125C27.2625 30.4625 25.675 31.5315 23.85 32.3195C22.025 33.1075 20.075 33.501 18 33.5Z" fill="#6C6C6C"/>
</svg>
