<svg width="36" height="37" viewBox="0 0 36 37" fill="none" xmlns="http://www.w3.org/2000/svg">
<path d="M16.875 29C16.875 28.7016 16.9935 28.4155 17.2045 28.2045C17.4155 27.9935 17.7016 27.875 18 27.875H27C27.0995 27.875 27.1948 27.8355 27.2652 27.7652C27.3355 27.6948 27.375 27.5995 27.375 27.5V9.5C27.375 9.40054 27.3355 9.30516 27.2652 9.23483C27.1948 9.16451 27.0995 9.125 27 9.125H18C17.7016 9.125 17.4155 9.00647 17.2045 8.7955C16.9935 8.58452 16.875 8.29837 16.875 8C16.875 7.70163 16.9935 7.41548 17.2045 7.2045C17.4155 6.99353 17.7016 6.875 18 6.875H27C28.449 6.875 29.625 8.051 29.625 9.5V27.5C29.625 28.1962 29.3484 28.8639 28.8562 29.3562C28.3639 29.8484 27.6962 30.125 27 30.125H18C17.7016 30.125 17.4155 30.0065 17.2045 29.7955C16.9935 29.5845 16.875 29.2984 16.875 29Z" fill="#6C6C6C"/>
<path d="M23.4189 20.1725C23.4189 20.5703 23.2608 20.9519 22.9795 21.2332C22.6982 21.5145 22.3167 21.6725 21.9189 21.6725H14.6349C14.6004 22.2065 14.5569 22.7375 14.5059 23.2715L14.4609 23.729C14.4441 23.9014 14.386 24.0673 14.2915 24.2125C14.197 24.3576 14.0688 24.4779 13.9179 24.563C13.767 24.6481 13.5978 24.6955 13.4247 24.7012C13.2516 24.707 13.0796 24.6709 12.9234 24.596C10.1813 23.2819 7.69904 21.4835 5.59587 19.2875L5.55087 19.241C5.3578 19.0397 5.25 18.7715 5.25 18.4925C5.25 18.2136 5.3578 17.9454 5.55087 17.744L5.59587 17.6975C7.69901 15.5015 10.1813 13.7032 12.9234 12.389C13.0796 12.3141 13.2516 12.278 13.4247 12.2838C13.5978 12.2896 13.767 12.337 13.9179 12.4221C14.0688 12.5072 14.197 12.6274 14.2915 12.7726C14.386 12.9178 14.4441 13.0836 14.4609 13.256L14.5059 13.7135C14.5569 14.246 14.6004 14.7785 14.6349 15.3125H21.9189C22.3167 15.3125 22.6982 15.4706 22.9795 15.7519C23.2608 16.0332 23.4189 16.4147 23.4189 16.8125V20.1725Z" fill="#6C6C6C"/>
</svg>
