<svg width="35" height="35" viewBox="0 0 35 35" fill="none" xmlns="http://www.w3.org/2000/svg">
<path d="M30.1484 4.27344H5.35156C4.75522 4.27344 4.27344 4.75522 4.27344 5.35156V30.1484C4.27344 30.7448 4.75522 31.2266 5.35156 31.2266H30.1484C30.7448 31.2266 31.2266 30.7448 31.2266 30.1484V5.35156C31.2266 4.75522 30.7448 4.27344 30.1484 4.27344ZM12.8984 25.5664C12.8984 25.7146 12.7771 25.8359 12.6289 25.8359H9.93359C9.78535 25.8359 9.66406 25.7146 9.66406 25.5664V9.93359C9.66406 9.78535 9.78535 9.66406 9.93359 9.66406H12.6289C12.7771 9.66406 12.8984 9.78535 12.8984 9.93359V25.5664ZM19.3672 16.1328C19.3672 16.2811 19.2459 16.4023 19.0977 16.4023H16.4023C16.2541 16.4023 16.1328 16.2811 16.1328 16.1328V9.93359C16.1328 9.78535 16.2541 9.66406 16.4023 9.66406H19.0977C19.2459 9.66406 19.3672 9.78535 19.3672 9.93359V16.1328ZM25.8359 18.5586C25.8359 18.7068 25.7146 18.8281 25.5664 18.8281H22.8711C22.7229 18.8281 22.6016 18.7068 22.6016 18.5586V9.93359C22.6016 9.78535 22.7229 9.66406 22.8711 9.66406H25.5664C25.7146 9.66406 25.8359 9.78535 25.8359 9.93359V18.5586Z" fill="#6C6C6C"/>
</svg>
