<svg width="36" height="37" viewBox="0 0 36 37" fill="none" xmlns="http://www.w3.org/2000/svg">
<path d="M13.8738 33.5L13.2738 28.7C12.9488 28.575 12.6428 28.425 12.3558 28.25C12.0688 28.075 11.7873 27.8875 11.5113 27.6875L7.04883 29.5625L2.92383 22.4375L6.78633 19.5125C6.76133 19.3375 6.74883 19.169 6.74883 19.007V17.9945C6.74883 17.8315 6.76133 17.6625 6.78633 17.4875L2.92383 14.5625L7.04883 7.4375L11.5113 9.3125C11.7863 9.1125 12.0738 8.925 12.3738 8.75C12.6738 8.575 12.9738 8.425 13.2738 8.3L13.8738 3.5H22.1238L22.7238 8.3C23.0488 8.425 23.3553 8.575 23.6433 8.75C23.9313 8.925 24.2123 9.1125 24.4863 9.3125L28.9488 7.4375L33.0738 14.5625L29.2113 17.4875C29.2363 17.6625 29.2488 17.8315 29.2488 17.9945V19.0055C29.2488 19.1685 29.2238 19.3375 29.1738 19.5125L33.0363 22.4375L28.9113 29.5625L24.4863 27.6875C24.2113 27.8875 23.9238 28.075 23.6238 28.25C23.3238 28.425 23.0238 28.575 22.7238 28.7L22.1238 33.5H13.8738ZM18.0738 23.75C19.5238 23.75 20.7613 23.2375 21.7863 22.2125C22.8113 21.1875 23.3238 19.95 23.3238 18.5C23.3238 17.05 22.8113 15.8125 21.7863 14.7875C20.7613 13.7625 19.5238 13.25 18.0738 13.25C16.5988 13.25 15.3548 13.7625 14.3418 14.7875C13.3288 15.8125 12.8228 17.05 12.8238 18.5C12.8238 19.95 13.3303 21.1875 14.3433 22.2125C15.3563 23.2375 16.5998 23.75 18.0738 23.75Z" fill="#6C6C6C"/>
</svg>
