<svg width="47" height="27" viewBox="0 0 47 27" fill="none" xmlns="http://www.w3.org/2000/svg">
<path d="M45.6008 0.166504V26.8343H47.7342V0.166504H45.6008Z" fill="#EBE9F1" mask="url(#path-1-inside-1_1683_3929)"/>
<path d="M20.265 9.05561C20.265 7.28743 19.5626 5.59167 18.3123 4.34137C17.062 3.09108 15.3662 2.38867 13.5981 2.38867C11.8299 2.38867 10.1341 3.09108 8.88383 4.34137C7.63353 5.59167 6.93112 7.28743 6.93112 9.05561C6.93112 16.8337 3.59766 19.056 3.59766 19.056H23.5985C23.5985 19.056 20.265 16.8337 20.265 9.05561Z" stroke="#6E6B7B" stroke-width="2.22231" stroke-linecap="round" stroke-linejoin="round"/>
<path d="M15.5165 23.5005C15.3211 23.8373 15.0407 24.1168 14.7034 24.3111C14.366 24.5054 13.9835 24.6077 13.5942 24.6077C13.2048 24.6077 12.8224 24.5054 12.485 24.3111C12.1476 24.1168 11.8672 23.8373 11.6719 23.5005" stroke="#6E6B7B" stroke-width="2.22231" stroke-linecap="round" stroke-linejoin="round"/>
</svg>
